<svg width="128" height="128" viewBox="0 0 128 128" fill="none" xmlns="http://www.w3.org/2000/svg">
<rect width="128" height="128" rx="30.72" fill="#EBEBEB"/>
<rect x="2" y="2" width="124" height="124" rx="28.72" fill="url(#paint0_linear_1041_650)" stroke="white" stroke-width="4"/>
<g clip-path="url(#clip0_1041_650)">
<path d="M93.0372 26.728C102.473 32.1788 102.39 32.1351 102.681 32.8244C103.097 33.8242 103.116 67.1259 102.7 68.1209C102.453 68.7034 101.558 69.2664 96.3146 72.3243C92.9549 74.261 89.6775 76.1733 89.0142 76.5471C87.1456 77.6295 87.2085 77.2946 87.2085 86.9487V95.2486L86.6905 95.7292C85.7562 96.6223 74.4958 103.01 73.8761 103.01C73.0241 103.01 72.1769 102.49 71.8864 101.825C71.7218 101.389 71.6589 98.0832 71.6976 89.5552L71.7605 77.843C76.9115 74.3435 82.0576 70.8391 87.2085 67.3395V47.4973C87.2085 32.9991 87.2714 26.7572 87.436 26.2815C87.6829 25.5534 88.535 25.0146 89.4451 25.0146C89.7985 25.0146 91.1879 25.6796 93.0324 26.7426L93.0372 26.728Z" fill="white"/>
<path d="M59.9429 34.6299C63.9465 36.8335 70.7869 40.9107 71.1839 41.3475C71.4889 41.6824 71.6632 42.1193 71.6632 42.5755V54.9332C71.6632 67.5578 71.6438 68.019 71.2711 68.514C71.0435 68.8053 67.7274 70.8438 63.869 73.0717C58.7277 76.0471 56.7768 77.2751 56.5057 77.7313C56.1523 78.2701 56.1135 78.8137 56.1135 82.2453C56.1135 85.9876 56.0942 86.1575 55.6343 86.6331C55.2615 87.0506 46.136 92.4771 43.73 93.7245C42.7133 94.2438 42.0501 94.1419 41.261 93.3508C40.8108 92.8994 40.5542 92.2829 40.5542 91.6422V78.8671C45.739 75.0229 50.9239 71.1788 56.1087 67.3297V36.3578C56.1087 35.7171 56.3604 35.1056 56.8155 34.6493C57.7063 33.7562 58.3308 33.7562 59.9477 34.6299H59.9429Z" fill="white"/>
<path d="M28.6502 43.5753C33.1525 45.9245 34.934 47.1525 34.934 47.1525C38.5406 49.2348 40.0559 50.2298 40.2641 50.6278C40.4916 51.0841 40.5545 52.7683 40.5545 59.6121V67.218C40.5545 67.7567 40.3464 68.2712 39.9736 68.6595C39.6638 68.9945 36.7785 70.7612 33.5882 72.6105C27.6578 76.0033 27.0139 76.2702 26.0215 75.7509C24.9807 75.1927 25 75.4014 25 59.384C25 46.4244 24.9516 44.1917 25.6197 43.5462C25.9344 43.2452 26.3652 43.1773 26.3652 43.1773C27.3335 42.9055 28.2533 43.3666 28.6454 43.5704L28.6502 43.5753Z" fill="white"/>
</g>
<defs>
<linearGradient id="paint0_linear_1041_650" x1="64" y1="0" x2="64" y2="128" gradientUnits="userSpaceOnUse">
<stop stop-color="#0081FF"/>
<stop offset="1" stop-color="#0009E5"/>
</linearGradient>
<clipPath id="clip0_1041_650">
<rect width="78" height="78" fill="white" transform="translate(25 25)"/>
</clipPath>
</defs>
</svg>
