<?xml version="1.0" encoding="UTF-8"?>
<svg version="1.1" xmlns="http://www.w3.org/2000/svg" width="1996" height="488">
<path d="M0 0 C28.38 0 56.76 0 86 0 C91.74449403 20.68017851 91.74449403 20.68017851 93.51342773 27.96264648 C93.82797944 29.24254534 93.82797944 29.24254534 94.14888573 30.54830074 C94.82979788 33.32191711 95.5067689 36.09647743 96.18359375 38.87109375 C96.67644036 40.8828336 97.16950381 42.89452033 97.6627655 44.90615845 C98.98339967 50.29548245 100.3003625 55.68569714 101.61646271 61.07612991 C102.44376518 64.46314997 103.27219416 67.8498925 104.10101318 71.23654175 C112.68715163 106.32053444 121.19871005 141.42231553 129.66880131 176.53448486 C137.3512668 208.37980899 145.13290853 240.19977949 153 272 C154.32 272 155.64 272 157 272 C160.87810699 256.22992963 164.75280483 240.459023 168.625 224.6875 C168.91762726 223.49565723 169.21025452 222.30381447 169.51174927 221.07585526 C177.67879075 187.80892102 185.79723363 154.5308638 193.82656479 121.23042297 C200.73115222 92.59518005 207.67094006 63.96918604 214.71432495 35.36772537 C215.30794668 32.95599892 215.90067282 30.54405396 216.49316406 28.13204956 C217.4043865 24.42334689 218.31812485 20.71527388 219.23407555 17.00773621 C219.5668385 15.65947909 219.89883628 14.31103286 220.23002052 12.96238708 C220.67882765 11.13574244 221.13094261 9.30991145 221.58325195 7.48413086 C221.8344429 6.46620956 222.08563385 5.44828827 222.34443665 4.39952087 C223 2 223 2 224 0 C252.38 0 280.76 0 310 0 C310 101.64 310 203.28 310 308 C296.14 308 282.28 308 268 308 C268 217.91 268 127.82 268 35 C263.71 35 259.42 35 255 35 C254.77538086 36.38058594 254.55076172 37.76117188 254.31933594 39.18359375 C252.60690448 48.57158072 250.18349864 57.80348777 247.890625 67.0625 C247.37052457 69.17379135 246.85076793 71.28516742 246.33132935 73.3966217 C245.22088206 77.90832521 244.1085912 82.41956832 242.99481201 86.93045044 C240.02733772 98.9502965 237.07251476 110.97325649 234.1171875 122.99609375 C233.81701847 124.21681517 233.51684944 125.43753658 233.20758438 126.69524956 C227.42945151 150.19710867 221.72558505 173.71647493 216.05431366 197.24431992 C214.05321309 205.54602518 212.05088345 213.8474337 210.046875 222.1484375 C209.83438992 223.02859968 209.62190483 223.90876186 209.4029808 224.81559563 C202.70069758 252.56811316 195.84845044 280.28315811 189 308 C166.56 308 144.12 308 121 308 C75.68590004 122.2057535 75.68590004 122.2057535 55 36 C50.71 35.67 46.42 35.34 42 35 C42 125.09 42 215.18 42 308 C28.14 308 14.28 308 0 308 C0 206.36 0 104.72 0 0 Z " fill="#ffffff" transform="translate(501,62)"/>
<path d="M0 0 C0.70615448 0.00054382 1.41230896 0.00108765 2.13986206 0.00164795 C13.29803416 0.04111908 23.80650136 0.76906921 34.4375 4.375 C35.10507324 4.59994141 35.77264648 4.82488281 36.46044922 5.05664062 C60.54242554 13.4440308 80.02240761 30.45609005 91.4453125 53.26171875 C94.69250562 60.13005539 97.16266412 67.20097199 99.25 74.5 C99.44505127 75.17909424 99.64010254 75.85818848 99.84106445 76.55786133 C104.47470887 93.92942901 103.4375 110.21753874 103.4375 128.375 C47.9975 128.375 -7.4425 128.375 -64.5625 128.375 C-60.1758548 152.50154858 -55.78487958 175.33593037 -34.640625 190.0703125 C-19.1722574 199.78165607 -0.9271323 201.96422125 16.87915039 198.29443359 C31.72906973 194.70865491 44.09320211 186.75072433 53.3125 174.5625 C57.20616812 168.52671485 57.20616812 168.52671485 60.4375 157.375 C73.3075 157.375 86.1775 157.375 99.4375 157.375 C94.99929524 181.7851262 83.59825942 200.82831344 63.4375 215.375 C38.04269822 231.9587549 6.49261291 237.93727928 -23.40405273 232.24804688 C-26.850123 231.45288984 -30.20730276 230.49083394 -33.5625 229.375 C-34.53413086 229.06151611 -34.53413086 229.06151611 -35.52539062 228.74169922 C-59.42330348 220.78962702 -77.87791524 203.80238618 -89.20361328 181.53588867 C-106.27468095 146.4010839 -107.46303903 102.96090567 -95.29296875 66.109375 C-86.69921725 41.73148557 -69.80572169 21.02411377 -46.57958984 9.30664062 C-31.60988116 2.39252681 -16.39903625 -0.04753831 0 0 Z M-44.5625 51.375 C-45.19929687 51.98988281 -45.83609375 52.60476562 -46.4921875 53.23828125 C-56.27850527 63.39430436 -63.5625 81.0976005 -63.5625 95.375 C-20.9925 95.375 21.5775 95.375 65.4375 95.375 C61.30080172 76.07040804 56.160094 62.34004266 42.4375 48.375 C41.59058594 47.50875 41.59058594 47.50875 40.7265625 46.625 C28.23039501 34.9212724 11.6408795 32.64536728 -4.75 33.09375 C-20.77808253 33.84624214 -33.36489198 40.04083579 -44.5625 51.375 Z " fill="#ffffff" transform="translate(965.5625,141.625)"/>
<path d="M0 0 C0.98870087 0.00081573 0.98870087 0.00081573 1.99737549 0.00164795 C12.97851814 0.04318906 22.9941372 0.99005212 33.4375 4.375 C34.1190918 4.58930664 34.80068359 4.80361328 35.50292969 5.02441406 C49.20570644 9.43782598 61.36459785 16.12451299 72.4375 25.375 C73.4275 26.1175 74.4175 26.86 75.4375 27.625 C96.63489801 45.59287754 106.0085815 74.45355555 108.83984375 101.171875 C109.11096155 104.57384629 109.30295416 107.96510375 109.4375 111.375 C109.47875 112.22449219 109.52 113.07398438 109.5625 113.94921875 C110.36988672 146.09330252 101.58075999 178.07858839 79.65625 202.08984375 C66.23945199 216.12581551 49.04788825 225.25563754 30.4375 230.375 C29.37660156 230.69339844 28.31570313 231.01179687 27.22265625 231.33984375 C8.35358269 236.11766051 -14.05089288 235.3750621 -32.5625 229.375 C-33.2440918 229.16069336 -33.92568359 228.94638672 -34.62792969 228.72558594 C-49.34733167 223.98473776 -62.03627764 216.75753518 -73.5625 206.375 C-74.34238281 205.67761719 -75.12226562 204.98023438 -75.92578125 204.26171875 C-97.98325918 183.42330696 -106.82431429 153.32618319 -107.84765625 123.7734375 C-108.24351597 103.90552091 -106.42530392 85.08431068 -99.5625 66.375 C-99.170625 65.29734375 -98.77875 64.2196875 -98.375 63.109375 C-88.4821731 37.72646387 -68.10239176 19.21028062 -43.6328125 8.24316406 C-29.47848077 2.30769194 -15.30057139 -0.02138852 0 0 Z M-48.5625 53.375 C-49.18640625 53.97699219 -49.8103125 54.57898438 -50.453125 55.19921875 C-66.430531 71.78837228 -70.97952617 97.26716126 -70.86303711 119.39770508 C-70.30521257 142.93890105 -63.44106702 165.40897926 -46.5625 182.375 C-45.97082031 183.00148438 -45.37914062 183.62796875 -44.76953125 184.2734375 C-32.10819245 196.62732658 -14.29832855 200.89736981 2.84472656 200.79736328 C20.6074045 200.28323356 36.62691582 193.8773596 49.4375 181.375 C68.18713562 160.22541102 72.79804581 133.75598448 71.4375 106.375 C69.30556681 82.90596884 60.33187481 62.08292387 42.4375 46.375 C15.32322449 25.21056551 -24.95902833 29.47857744 -48.5625 53.375 Z " fill="#ffffff" transform="translate(1751.5625,141.625)"/>
<path d="M0 0 C0.92973633 0.51288574 1.85947266 1.02577148 2.81738281 1.55419922 C10.54398303 5.85514379 18.16111631 10.33702302 25.75 14.875 C26.83925781 15.52629883 27.92851562 16.17759766 29.05078125 16.84863281 C36.7428611 21.4928611 36.7428611 21.4928611 39 23.75 C40.50323913 30.51623333 40.14769777 37.49709587 40.14526367 44.39282227 C40.14825931 45.77326549 40.15166277 47.15370787 40.15544128 48.53414917 C40.16424111 52.26749404 40.16661761 56.00081596 40.16725707 59.7341702 C40.16796949 62.06884005 40.17010738 64.40350412 40.17275429 66.73817253 C40.18199217 74.88884729 40.18609085 83.03950573 40.18530273 91.19018555 C40.18470133 98.77978731 40.19526934 106.36931814 40.2110464 113.95890194 C40.22412743 120.48477625 40.22948644 127.01062738 40.22884732 133.5365147 C40.22859264 137.43001902 40.23142794 141.32346015 40.24202538 145.21695137 C40.25171665 148.87694197 40.25177853 152.53680906 40.24450874 156.19680405 C40.24296741 158.17560678 40.25130115 160.15440953 40.25994873 162.13319397 C40.25575424 163.31772156 40.25155975 164.50224915 40.24723816 165.72267151 C40.24778293 166.74783151 40.24832769 167.7729915 40.24888897 168.82921696 C39.86211018 173.36817637 39.15629053 176.74980869 35.65625 179.77734375 C34.6146875 180.40769531 33.573125 181.03804687 32.5 181.6875 C31.90396973 182.05319092 31.30793945 182.41888184 30.69384766 182.7956543 C28.4772326 184.14008305 26.2414601 185.44739902 24 186.75 C23.04834961 187.30397461 22.09669922 187.85794922 21.11621094 188.42871094 C15.62743598 191.61491134 10.12555186 194.77750212 4.6171875 197.9296875 C-2.33560154 201.92151599 -9.20428921 206.04624634 -16.03369141 210.24536133 C-16.79601074 210.70966553 -17.55833008 211.17396973 -18.34375 211.65234375 C-19.33665039 212.26323853 -19.33665039 212.26323853 -20.34960938 212.88647461 C-22 213.75 -22 213.75 -24 213.75 C-25.85074522 223.98774545 -26.13861487 234.02235728 -26.09765625 244.41015625 C-26.09645826 245.74604253 -26.09576069 247.08192936 -26.09555054 248.41781616 C-26.09144716 253.9586046 -26.08587526 259.49854793 -26.00366211 265.03881836 C-25.96379204 267.80215976 -25.94779794 270.56364589 -25.95835876 273.32725525 C-25.96767874 275.90725831 -25.94292812 278.48767793 -25.87916565 281.06690979 C-25.97207661 289.49660968 -25.97207661 289.49660968 -28.84725952 293.00244141 C-31.14427007 294.83426412 -33.43956789 296.31432471 -36 297.75 C-37.09634766 298.4497998 -38.19269531 299.14959961 -39.32226562 299.87060547 C-40.33998047 300.44697754 -41.35769531 301.02334961 -42.40625 301.6171875 C-42.96947464 301.93853668 -43.53269928 302.25988586 -44.11299133 302.5909729 C-45.90439626 303.61008258 -47.70157964 304.61833003 -49.5 305.625 C-50.74839252 306.32859596 -51.99668273 307.0323735 -53.24487305 307.73632812 C-55.70094318 309.11868116 -58.1602568 310.49499061 -60.62255859 311.86621094 C-63.54314535 313.49518646 -66.45388848 315.14023754 -69.36328125 316.7890625 C-70.84527631 317.61132068 -72.32824931 318.43182045 -73.8125 319.25 C-74.45574219 319.61722168 -75.09898437 319.98444336 -75.76171875 320.36279297 C-79.99449659 322.64381515 -83.2227973 323.41581222 -88 322.75 C-90.65092468 321.32989502 -90.65092468 321.32989502 -93 318.75 C-93.84057744 315.52345137 -93.87823563 312.32504528 -93.94848633 309.00292969 C-94.00740807 307.51904755 -94.00740807 307.51904755 -94.06752014 306.00518799 C-94.18655884 302.72753319 -94.26437818 299.45097619 -94.33203125 296.171875 C-94.35740149 295.04812721 -94.38277172 293.92437943 -94.40891075 292.76657867 C-94.53669976 286.80905081 -94.62845954 280.85205674 -94.69555664 274.89355469 C-94.75760946 269.9815669 -94.88938854 265.0793445 -95.08520508 260.17089844 C-96.67498146 219.43430789 -96.67498146 219.43430789 -90.78839111 211.06762695 C-85.39939331 205.50115186 -79.17206269 202.53325518 -71.96664429 199.90441895 C-67.81989482 198.29078223 -64.50169233 195.95036653 -60.953125 193.3125 C-59.81352763 192.52984166 -58.67039536 191.75230027 -57.5234375 190.98046875 C-56.44320312 190.24441406 -55.36296875 189.50835937 -54.25 188.75 C-52.53779781 187.58410931 -50.82535105 186.4185814 -49.11248779 185.25366211 C-46.03145248 183.16293777 -46.03145248 183.16293777 -42.97779942 181.03263187 C-41 179.75 -41 179.75 -38.07871151 178.23756313 C-31.69502672 174.75969592 -31.69502672 174.75969592 -27.89385796 168.84707832 C-27.48849052 165.29280513 -27.46036646 161.90652014 -27.56176758 158.33032227 C-27.55691825 156.98365996 -27.54677025 155.63700801 -27.5317688 154.29042053 C-27.50593099 150.64256577 -27.55357656 146.99896019 -27.61427522 143.35165906 C-27.66531373 139.49669539 -27.64684524 135.64204657 -27.63591003 131.78684998 C-27.62536209 124.45566321 -27.67488681 117.12619202 -27.74693078 109.79540056 C-27.83297732 100.7757707 -27.84686646 91.75631083 -27.85742188 82.73632812 C-27.86148387 79.52619831 -27.86603421 76.31606991 -27.8712616 73.10594177 C-27.87315043 71.93095805 -27.87315043 71.93095805 -27.87507743 70.73223728 C-27.88564069 65.46588176 -27.91662774 60.19992651 -27.95796204 54.93373108 C-28.06182245 41.15085868 -28.08244088 27.36589196 -27.79849756 13.58492458 C-27.77082893 12.12564217 -27.74964198 10.6662207 -27.73532641 9.20674622 C-27.71360302 7.19217754 -27.66398023 5.17796795 -27.61308289 3.16392517 C-27.59146434 2.01877913 -27.56984579 0.8736331 -27.54757214 -0.30621433 C-26.88705007 -3.85722663 -25.79640903 -5.03782775 -23 -7.25 C-15.61374539 -10.28777824 -6.27693731 -3.50117721 0 0 Z " fill="#ffffff" transform="translate(292,69.25)"/>
<path d="M0 0 C2.58196671 1.17673704 5.02022647 2.3889213 7.5 3.75 C8.22340576 4.14050537 8.94681152 4.53101074 9.69213867 4.93334961 C45.44462827 24.44462827 45.44462827 24.44462827 53 32 C53.25726891 33.99968529 53.25726891 33.99968529 53.26742554 36.50350952 C53.28022049 37.92516167 53.28022049 37.92516167 53.29327393 39.37553406 C53.29191437 40.94027214 53.29191437 40.94027214 53.29052734 42.53662109 C53.29724457 43.63264145 53.30396179 44.7286618 53.31088257 45.8578949 C53.32994668 49.49645468 53.33379106 53.13483083 53.3359375 56.7734375 C53.34235973 59.29448524 53.34908764 61.81553223 53.35610962 64.33657837 C53.36810358 69.62772654 53.37187371 74.91880582 53.37060547 80.20996094 C53.36940422 86.32555937 53.39049968 92.44080478 53.4220928 98.55631387 C53.45139629 104.43815306 53.45858158 110.31988439 53.45738602 116.2018013 C53.45975085 118.70490587 53.46862362 121.20801287 53.48405075 123.71107101 C53.50359086 127.20921057 53.49791907 130.70643637 53.48583984 134.20458984 C53.49707886 135.2437001 53.50831787 136.28281036 53.51989746 137.35340881 C53.45811987 144.37443583 53.45811987 144.37443583 51.11268616 147.57713318 C50.41549973 148.04667923 49.71831329 148.51622528 49 149 C47.86703491 149.77283325 47.86703491 149.77283325 46.71118164 150.5612793 C45.86934326 151.06054932 45.02750488 151.55981934 44.16015625 152.07421875 C43.19311768 152.65123535 42.2260791 153.22825195 41.22973633 153.82275391 C40.18454834 154.43812012 39.13936035 155.05348633 38.0625 155.6875 C36.97670654 156.33380371 35.89091309 156.98010742 34.7722168 157.64599609 C28.57336966 161.33195019 22.34538181 164.96720941 16.109375 168.58984375 C14.79677448 169.35388965 13.48419296 170.11796819 12.17163086 170.88208008 C9.64270309 172.35401913 7.10915235 173.81752739 4.57250977 175.27612305 C-3.83399173 179.84303958 -3.83399173 179.84303958 -11 186 C-12.25571378 190.90565516 -12.00350316 195.61123705 -11.96484375 200.66015625 C-11.96162109 201.86607422 -11.95839844 203.07199219 -11.95507812 204.31445312 C-11.94333913 206.81746872 -11.89632707 209.3205619 -11.81445312 211.82226562 C-11.87608048 220.68238372 -11.87608048 220.68238372 -14.8359375 224.15234375 C-17.4619126 226.03351229 -20.13298671 227.51259863 -23 229 C-25.11138542 230.28149018 -27.21797475 231.57090765 -29.3203125 232.8671875 C-31.58566925 234.20839762 -33.85305151 235.54509445 -36.125 236.875 C-37.01174911 237.39525757 -37.01174911 237.39525757 -37.91641235 237.92602539 C-40.30027085 239.32445481 -42.6846465 240.72196062 -45.07191467 242.11456299 C-48.4099598 244.0622678 -51.72951858 246.0369313 -55.03515625 248.0390625 C-56.41885339 248.86007894 -57.80292711 249.6804613 -59.1875 250.5 C-59.77869629 250.86722168 -60.36989258 251.23444336 -60.97900391 251.61279297 C-65.55728752 254.27187703 -68.8497584 254.49789238 -74 254 C-77.21954645 251.46546343 -78.70432435 249.88702695 -80 246 C-80.80624926 238.10188106 -80.912251 230.12127932 -81.11914062 222.18969727 C-81.19474799 219.53356352 -81.32787101 216.89887838 -81.48828125 214.24438477 C-82.74966211 192.90647068 -82.74966211 192.90647068 -78.22665405 186.48059082 C-73.80986618 182.11901662 -68.73474327 179.07878554 -63.26251221 176.21096802 C-60.479151 174.72122516 -58.03487355 172.9344407 -55.55078125 170.9921875 C-54.83664063 170.46705566 -54.1225 169.94192383 -53.38671875 169.40087891 C-46.12456004 164.05854228 -38.88357508 158.69007448 -31.6887207 153.25732422 C-31.10050537 152.81404785 -30.51229004 152.37077148 -29.90625 151.9140625 C-29.34176147 151.47500769 -28.77727295 151.03595287 -28.19567871 150.58359337 C-26 149 -26 149 -23.25773621 147.42322731 C-17.3913633 143.88058969 -17.3913633 143.88058969 -13.99319458 138.16578293 C-13.62719499 134.72627105 -13.60689461 131.43575281 -13.70703125 127.97802734 C-13.70049026 126.689272 -13.69394928 125.40051666 -13.68721008 124.07270813 C-13.67021278 120.55696175 -13.72006258 117.04499676 -13.78153229 113.5298686 C-13.83358037 109.84248273 -13.82060875 106.1553461 -13.81396484 102.46768188 C-13.8106344 95.48688406 -13.86056206 88.50760728 -13.93203354 81.52721369 C-14.0578643 69.02535594 -14.0839298 56.5229607 -14.10392475 44.02055132 C-14.1129299 39.63638824 -14.14227788 35.2529621 -14.1892004 30.86904502 C-14.20974734 28.79865662 -14.22375941 26.72834006 -14.2351532 24.65788269 C-14.24981484 22.13782794 -14.27553674 19.61780292 -14.31452942 17.0980072 C-14.3456077 6.77344736 -14.3456077 6.77344736 -11 2 C-7.06556702 -1.29641682 -4.86460385 -1.18017016 0 0 Z " fill="#ffffff" transform="translate(146,100)"/>
<path d="M0 0 C12.54 0 25.08 0 38 0 C38 30.03 38 60.06 38 91 C42.62 91 47.24 91 52 91 C52.556875 89.0509375 52.556875 89.0509375 53.125 87.0625 C55.78352214 79.13685888 60.1890702 72.84332786 67 68 C70.1184325 66.9605225 72.27475586 66.88505162 75.54296875 66.90234375 C76.99352661 66.90609009 76.99352661 66.90609009 78.47338867 66.90991211 C79.69904541 66.91901611 80.92470215 66.92812012 82.1875 66.9375 C88.0346875 66.9684375 88.0346875 66.9684375 94 67 C94 77.89 94 88.78 94 100 C75.52 100 57.04 100 38 100 C38.08555397 118.08110193 38.17920351 136.16210092 38.28752708 154.24307823 C38.33756995 162.63908456 38.38401358 171.03508152 38.421875 179.43115234 C38.45489848 186.75232093 38.49478632 194.07341508 38.54279006 201.39450133 C38.56795248 205.26808742 38.58976356 209.14162479 38.60334396 213.01527023 C38.61625805 216.66784091 38.63841117 220.32024361 38.66738319 223.9727211 C38.68065076 225.9388529 38.68436231 227.90504208 38.68769836 229.87121582 C38.39415888 241.96230001 38.39415888 241.96230001 43.1875 252.5 C49.56918715 255.90356648 55.55776993 256.31884781 62.65234375 256.4140625 C63.55247696 256.43342865 64.45261017 256.4527948 65.38002014 256.4727478 C68.23241945 256.53214471 71.08486001 256.57876831 73.9375 256.625 C75.88087619 256.66321655 77.82423612 256.70227038 79.76757812 256.7421875 C84.51163022 256.83937679 89.25552581 256.91926108 94 257 C94 267.89 94 278.78 94 290 C86.26033612 290.08422851 78.52236299 290.16432324 70.78263855 290.20700073 C67.17731822 290.22799424 63.57238316 290.25597617 59.96728516 290.30175781 C56.48536189 290.34569109 53.0038087 290.36923522 49.52162933 290.37950897 C47.5676196 290.39033688 45.6137557 290.42148435 43.65997314 290.45318604 C31.9650505 290.45608134 21.73381682 288.10576707 13 280 C12.45730469 279.49855469 11.91460938 278.99710937 11.35546875 278.48046875 C0.00073858 266.66580015 -0.31099686 249.33484849 -0.22705078 233.95996094 C-0.22648523 232.49022937 -0.22680602 231.02049724 -0.22793579 229.55076599 C-0.22850471 225.59907253 -0.21682591 221.6475029 -0.20278788 217.69583797 C-0.19020286 213.55189088 -0.18910394 209.4079403 -0.18673706 205.26397705 C-0.18054497 197.43387923 -0.16416519 189.6038379 -0.14403808 181.77376485 C-0.12160801 172.85226162 -0.11066785 163.93075555 -0.10064721 155.00923109 C-0.0797967 136.67278228 -0.04314918 118.33641083 0 100 C-10.23 100 -20.46 100 -31 100 C-31 89.11 -31 78.22 -31 67 C-20.77 67 -10.54 67 0 67 C0 44.89 0 22.78 0 0 Z " fill="#ffffff" transform="translate(1520,80)"/>
<path d="M0 0 C12.54 0 25.08 0 38 0 C38 30.03 38 60.06 38 91 C42.62 91 47.24 91 52 91 C52.556875 89.0509375 52.556875 89.0509375 53.125 87.0625 C55.78352214 79.13685888 60.1890702 72.84332786 67 68 C70.1184325 66.9605225 72.27475586 66.88505162 75.54296875 66.90234375 C76.99352661 66.90609009 76.99352661 66.90609009 78.47338867 66.90991211 C79.69904541 66.91901611 80.92470215 66.92812012 82.1875 66.9375 C88.0346875 66.9684375 88.0346875 66.9684375 94 67 C94 77.89 94 88.78 94 100 C75.52 100 57.04 100 38 100 C38.08555397 118.08110193 38.17920351 136.16210092 38.28752708 154.24307823 C38.33756995 162.63908456 38.38401358 171.03508152 38.421875 179.43115234 C38.45489848 186.75232093 38.49478632 194.07341508 38.54279006 201.39450133 C38.56795248 205.26808742 38.58976356 209.14162479 38.60334396 213.01527023 C38.61625805 216.66784091 38.63841117 220.32024361 38.66738319 223.9727211 C38.68065076 225.9388529 38.68436231 227.90504208 38.68769836 229.87121582 C38.39415888 241.96230001 38.39415888 241.96230001 43.1875 252.5 C49.56918715 255.90356648 55.55776993 256.31884781 62.65234375 256.4140625 C63.55247696 256.43342865 64.45261017 256.4527948 65.38002014 256.4727478 C68.23241945 256.53214471 71.08486001 256.57876831 73.9375 256.625 C75.88087619 256.66321655 77.82423612 256.70227038 79.76757812 256.7421875 C84.51163022 256.83937679 89.25552581 256.91926108 94 257 C94 267.89 94 278.78 94 290 C86.26033612 290.08422851 78.52236299 290.16432324 70.78263855 290.20700073 C67.17731822 290.22799424 63.57238316 290.25597617 59.96728516 290.30175781 C56.48536189 290.34569109 53.0038087 290.36923522 49.52162933 290.37950897 C47.5676196 290.39033688 45.6137557 290.42148435 43.65997314 290.45318604 C31.9650505 290.45608134 21.73381682 288.10576707 13 280 C12.45730469 279.49855469 11.91460938 278.99710937 11.35546875 278.48046875 C0.00073858 266.66580015 -0.31099686 249.33484849 -0.22705078 233.95996094 C-0.22648523 232.49022937 -0.22680602 231.02049724 -0.22793579 229.55076599 C-0.22850471 225.59907253 -0.21682591 221.6475029 -0.20278788 217.69583797 C-0.19020286 213.55189088 -0.18910394 209.4079403 -0.18673706 205.26397705 C-0.18054497 197.43387923 -0.16416519 189.6038379 -0.14403808 181.77376485 C-0.12160801 172.85226162 -0.11066785 163.93075555 -0.10064721 155.00923109 C-0.0797967 136.67278228 -0.04314918 118.33641083 0 100 C-10.23 100 -20.46 100 -31 100 C-31 89.11 -31 78.22 -31 67 C-20.77 67 -10.54 67 0 67 C0 44.89 0 22.78 0 0 Z " fill="#ffffff" transform="translate(1119,80)"/>
<path d="M0 0 C12.54 0 25.08 0 38 0 C38 7.92 38 15.84 38 24 C46.13777902 24.50280924 46.13777902 24.50280924 53.05859375 21.10546875 C54.53538144 18.792474 55.79699563 16.46510369 57 14 C62.53683618 5.87930694 70.61905418 2.80543561 80 1 C85.93510566 0.17465516 91.76682652 -0.13935779 97.75390625 -0.09765625 C98.93339088 -0.09553383 98.93339088 -0.09553383 100.13670349 -0.09336853 C102.61201015 -0.08783672 105.08722137 -0.07529775 107.5625 -0.0625 C109.25585806 -0.05747616 110.94921755 -0.05291481 112.64257812 -0.04882812 C116.76178378 -0.03874686 120.88078693 -0.01915913 125 0 C125 10.89 125 21.78 125 33 C96.29 33 67.58 33 38 33 C38 95.7 38 158.4 38 223 C25.46 223 12.92 223 0 223 C0 149.41 0 75.82 0 0 Z " fill="#ffffff" transform="translate(1257,147)"/>
<path d="M0 0 C12.21 0 24.42 0 37 0 C37 73.59 37 147.18 37 223 C24.79 223 12.58 223 0 223 C0 149.41 0 75.82 0 0 Z " fill="#ffffff" transform="translate(1417,147)"/>
<path d="M0 0 C4.28613432 0.06939184 7.20980013 1.18615013 11.04296875 3.18359375 C12.01266602 3.68802002 12.01266602 3.68802002 13.00195312 4.20263672 C20.56462084 8.21966807 27.95568459 12.56328657 35.35546875 16.87109375 C35.98730072 17.23790253 36.61913269 17.6047113 37.27011108 17.9826355 C56.24914186 29.03343998 56.24914186 29.03343998 58.35546875 33.24609375 C58.48370269 35.55201304 58.54631201 37.86166316 58.58007812 40.17089844 C58.59716324 41.23952621 58.59716324 41.23952621 58.61459351 42.32974243 C58.72520394 49.78048108 58.7726671 57.23220712 58.81542969 64.68359375 C58.83770738 68.21859262 58.87947712 71.7525361 58.93847656 75.28710938 C59.00959238 79.55596299 59.04626498 83.82382327 59.05854797 88.09323883 C59.06894402 89.71839739 59.09135814 91.34352617 59.12614441 92.96834564 C59.38345136 105.64253121 59.38345136 105.64253121 56.90388489 109.51043701 C55.12709938 111.07613214 53.45707283 112.16828077 51.35546875 113.24609375 C50.58162842 113.78202148 49.80778809 114.31794922 49.01049805 114.87011719 C47.98049683 115.48161621 47.98049683 115.48161621 46.9296875 116.10546875 C46.14190918 116.57654053 45.35413086 117.0476123 44.54248047 117.53295898 C43.7176416 118.01579346 42.89280273 118.49862793 42.04296875 118.99609375 C40.73996826 119.76771851 40.73996826 119.76771851 39.41064453 120.55493164 C31.43569511 125.25267303 23.38654762 129.81472687 15.24707031 134.22119141 C13.56762866 135.13114185 11.8946528 136.05300331 10.22265625 136.9765625 C2.3140027 141.19057641 2.3140027 141.19057641 -2.64453125 140.24609375 C-5.78044695 138.4662497 -6.48555861 137.72301168 -7.64453125 134.24609375 C-7.98928976 130.88750532 -8.06970568 127.50971436 -8.19921875 124.13671875 C-8.24126434 123.05279846 -8.28330994 121.96887817 -8.32662964 120.85211182 C-8.86509776 105.06722636 -8.79478854 89.27151784 -8.77490234 73.47949219 C-8.77033 69.81671528 -8.77035271 66.15398788 -8.77490234 62.49121094 C-8.81798176 27.79950014 -8.81798176 27.79950014 -8.32421875 14.51171875 C-8.30223419 13.70796814 -8.28024963 12.90421753 -8.25759888 12.07611084 C-7.95652077 5.86738495 -6.7047778 0.45273419 0 0 Z " fill="#ffffff" transform="translate(8.64453125,137.75390625)"/>
<path d="M0 0 C12.21 0 24.42 0 37 0 C37 14.85 37 29.7 37 45 C24.79 45 12.58 45 0 45 C0 30.15 0 15.3 0 0 Z " fill="#ffffff" transform="translate(1417,62)"/>
<path d="M0 0 C8.0970435 5.76900154 14.14810363 13.01428426 16 23 C16.91919835 35.67288218 15.37009547 46.02970623 6.97265625 55.99609375 C-0.63126467 63.72047283 -9.8185325 67.0113114 -20.5625 67.375 C-32.13083561 66.99598046 -41.55292606 62.19513345 -49.46484375 53.88671875 C-56.24935585 45.54850159 -57.84370493 35.4726548 -57 25 C-55.21367824 14.70238042 -49.94608204 6.56863003 -41.4609375 0.5078125 C-28.72165104 -7.29752809 -12.87591818 -7.81686948 0 0 Z M-44 14 C-48.57333774 20.87810689 -49.81545742 27.89202334 -49 36 C-47.02933385 43.8826646 -42.83422459 50.93417742 -35.875 55.34765625 C-27.81789902 59.47988267 -18.55834114 60.77596206 -9.75 58 C-1.67130295 54.3543168 3.72373512 48.05415116 7 40 C9.54223482 32.37329553 8.50000467 24.38872967 5.19140625 17.18359375 C1.16473734 9.80356779 -4.71749839 5.6059381 -12.5 2.6875 C-25.57793194 0.11862051 -35.22161122 4.08218599 -44 14 Z " fill="#ffffff" transform="translate(1971,307)"/>
<path d="M0 0 C5.0428125 -0.0928125 5.0428125 -0.0928125 10.1875 -0.1875 C11.76374146 -0.22846802 11.76374146 -0.22846802 13.37182617 -0.27026367 C22.07571601 -0.3478801 22.07571601 -0.3478801 26 3 C28.84285243 7.07475514 29.51917515 10.2958982 28.7265625 15.09765625 C27.41933839 18.52033443 24.97241617 19.97622729 22 22 C22.49371094 22.75925781 22.98742188 23.51851563 23.49609375 24.30078125 C24.45708984 25.79158203 24.45708984 25.79158203 25.4375 27.3125 C26.07558594 28.29863281 26.71367188 29.28476562 27.37109375 30.30078125 C29 33 29 33 30 36 C25.14591598 37.05907288 25.14591598 37.05907288 22 36 C19.38430356 33.03261328 17.38142467 30.07271021 15.2734375 26.72265625 C12.93334371 23.31901088 12.93334371 23.31901088 7 23 C7 27.29 7 31.58 7 36 C4.69 36 2.38 36 0 36 C0 24.12 0 12.24 0 0 Z M7 6 C7 9.63 7 13.26 7 17 C8.5675 17.061875 10.135 17.12375 11.75 17.1875 C12.63171875 17.22230469 13.5134375 17.25710938 14.421875 17.29296875 C17.48968761 16.94435368 18.7983114 16.13082965 21 14 C21.58333333 11.5 21.58333333 11.5 21 9 C19.87835874 7.24702294 19.87835874 7.24702294 18 6 C15.25756437 5.63729516 15.25756437 5.63729516 12.3125 5.8125 C10.559375 5.874375 8.80625 5.93625 7 6 Z " fill="#ffffff" transform="translate(1937,319)"/>
</svg>
